<?xml version="1.0" encoding="UTF-8"?>
<svg width="200" height="200" viewBox="0 0 200 200" version="1.1" xmlns="http://www.w3.org/2000/svg">
  <defs>
    <linearGradient id="qr-gradient" x1="0%" y1="0%" x2="100%" y2="100%">
      <stop offset="0%" style="stop-color:#6200ea;stop-opacity:1" />
      <stop offset="100%" style="stop-color:#ff4081;stop-opacity:1" />
    </linearGradient>
  </defs>
  <path fill="url(#qr-gradient)" d="M50 50h10v10H50zM60 50h10v10H60zM70 50h10v10H70zM80 50h10v10H80zM90 50h10v10H90zM100 50h10v10H100zM110 50h10v10H110zM120 50h10v10H120zM130 50h10v10H130zM140 50h10v10H140zM50 60h10v10H50zM140 60h10v10H140zM50 70h10v10H50zM70 70h10v10H70zM80 70h10v10H80zM90 70h10v10H90zM100 70h10v10H100zM110 70h10v10H110zM120 70h10v10H120zM140 70h10v10H140zM50 80h10v10H50zM70 80h10v10H70zM120 80h10v10H120zM140 80h10v10H140zM50 90h10v10H50zM70 90h10v10H70zM90 90h10v10H90zM100 90h10v10H100zM120 90h10v10H120zM140 90h10v10H140zM50 100h10v10H50zM140 100h10v10H140zM50 110h10v10H50zM70 110h10v10H70zM80 110h10v10H80zM90 110h10v10H90zM100 110h10v10H100zM110 110h10v10H110zM120 110h10v10H120zM140 110h10v10H140zM50 120h10v10H50zM140 120h10v10H140zM50 130h10v10H50zM70 130h10v10H70zM80 130h10v10H80zM90 130h10v10H90zM100 130h10v10H100zM110 130h10v10H110zM120 130h10v10H120zM140 130h10v10H140zM60 140h10v10H60zM70 140h10v10H70zM80 140h10v10H80zM90 140h10v10H90zM100 140h10v10H100zM110 140h10v10H110zM120 140h10v10H120zM130 140h10v10H130z"/>
</svg>